<svg version="1.2" xmlns="http://www.w3.org/2000/svg" viewBox="0 0 242 206" width="242" height="206">
	<style>
		.s0 { fill: #33858b } 
	</style>
	<path id="Path 0" fill-rule="evenodd" class="s0" d="m127 9.08c10.72-0.05 24.45 0.39 30.5 0.98 6.05 0.58 14.71 1.94 19.25 3 4.54 1.07 10.39 3.02 13 4.35 2.61 1.33 7.9 4.62 11.75 7.33 3.85 2.7 8.69 6.91 10.75 9.34 2.06 2.43 6.75 8.7 10.42 13.92 3.67 5.22 7.32 11.3 8.12 13.5 0.9 2.46 1.64 9.39 1.93 18 0.37 10.86 0.11 15.57-1.18 21-0.91 3.85-3.42 10.6-5.57 15-2.69 5.5-6.68 11.12-12.77 18-4.88 5.5-12.2 12.55-16.28 15.67-4.08 3.12-12.82 9.12-19.42 13.34-6.6 4.21-15.82 9.48-20.5 11.71-4.68 2.24-15.7 6.88-24.5 10.33-8.8 3.44-18.47 6.97-21.5 7.85-3.03 0.87-10 2.26-15.5 3.09-5.5 0.82-15.85 1.5-23 1.51-9.99 0.01-14.85-0.47-21-2.07-4.4-1.15-11.54-3.51-15.87-5.26-6.35-2.56-8.99-4.33-13.66-9.17-3.18-3.3-6.72-8.14-7.88-10.75-1.87-4.26-2.12-6.94-2.59-47.25l6-13.9c3.3-7.64 6.9-14.51 8-15.25 1.1-0.75 3.35-1.37 5-1.38 1.65 0 4.01 0.9 5.25 2.01 1.24 1.11 2.47 2.92 2.75 4.02 0.29 1.14-2.07 8.21-5.5 16.5-4.03 9.74-6.06 16.06-6.2 19.25-0.1 2.61 0.21 10.15 0.71 16.75 0.88 11.85 0.94 12.06 4.69 16.75 2.42 3.03 5.52 5.5 8.55 6.82 2.61 1.13 8.58 3.17 13.25 4.52 6.86 1.98 10.71 2.44 20 2.42 6.33-0.01 14.42-0.49 18-1.06 3.57-0.57 9.08-1.8 17.95-4.45l0.28-75c0.15-41.25 0.27-75.08 0.27-75.17 0-0.1-2.7 0.46-6 1.24-4.98 1.17-6.77 2.22-10.51 6.15-4 4.21-4.98 4.74-8.83 4.76-3.45 0.02-4.74-0.49-6.29-2.48-1.08-1.37-1.94-3.74-1.91-5.25 0.03-1.86 1.58-4.4 4.79-7.86 2.61-2.82 6.1-6.07 7.75-7.24 1.65-1.16 6.38-2.87 10.5-3.8 5.52-1.23 12.66-1.7 27-1.77zm-0.25 23.53c-0.42 4.34-0.76 36.8-0.75 72.14 0 35.34 0.22 64.25 0.5 64.25 0.28 0 6.01-2.3 12.75-5.11 6.74-2.8 15.4-6.92 19.25-9.15 3.85-2.23 12.18-7.54 18.5-11.8 7.92-5.32 14.46-10.81 21-17.6 7.14-7.41 10.41-11.72 13.17-17.35 2.01-4.12 4.19-9.52 4.83-11.99 0.69-2.64 1.03-9.33 0.84-16.17-0.33-11.46-0.4-11.75-3.78-16.5-1.89-2.66-5.83-8.32-8.75-12.58-4.43-6.46-6.76-8.72-14.06-13.58-4.81-3.2-11.22-6.55-14.25-7.43-3.03-0.88-8.2-2.11-11.5-2.75-3.3-0.63-12.97-1.4-21.5-1.71l-15.5-0.56z"/>
</svg>